<svg xmlns="http://www.w3.org/2000/svg" xmlns:xlink="http://www.w3.org/1999/xlink" width="86.042" height="82.4" viewBox="0 0 86.042 82.4">
  <defs>
    <clipPath id="clip-path">
      <rect id="Rectangle_11" data-name="Rectangle 11" width="42" height="42" transform="translate(1010 1532)" fill="#f7f7f7"/>
    </clipPath>
  </defs>
  <g id="Group_4" data-name="Group 4" transform="translate(-988 -1512)">
    <path id="Path_7" data-name="Path 7" d="M890.732,827.377c10.974,16.8,5.654,39.9-11.414,49.605l-.275.156c-9.2,5.16-19.56,7.7-29.932,8.874-11.71,1.331-25.247.187-32.586-9.476-4.869-6.412-5.8-15.115-6.041-23.309-.288-10,.276-20.41,4.782-29.222,7.469-14.608,24.815-21.616,40.5-19.6C866.457,805.783,880.978,812.445,890.732,827.377Z" transform="translate(177.58 707.934)" fill="#b3b0ad"/>
    <g id="Mask_Group_5" data-name="Mask Group 5" clip-path="url(#clip-path)">
      <g id="local-search-svgrepo-com" transform="translate(1010 1532)">
        <path id="Path_11" data-name="Path 11" d="M38.633,12.787c-.483.934-1.042,1.88-1.631,2.8l-.234.362c-.5.76-1.008,1.5-1.511,2.2,1.933,1.192,3.01,2.575,3.01,3.922,0,1.695-1.7,3.445-4.669,4.8A22.406,22.406,0,0,1,30.4,28.027a40.207,40.207,0,0,0,.411-4.674,1.32,1.32,0,0,1-1.355-.41c-.183-.211-.657-.762-1.3-1.548,0,.224.007.449.007.674a37.368,37.368,0,0,1-.571,6.6,37.378,37.378,0,0,1-6.6.571,37.376,37.376,0,0,1-6.6-.571,38.485,38.485,0,0,1,0-13.2A37.387,37.387,0,0,1,21,14.9c.861,0,1.711.028,2.546.082-.559-.906-1.079-1.829-1.52-2.732-.341-.008-.682-.014-1.026-.014a40.68,40.68,0,0,0-5.958.432A22.386,22.386,0,0,1,16.2,9.472C17.555,6.5,19.3,4.8,21,4.8h0c.033,0,.065,0,.1,0a9.762,9.762,0,0,1,1.252-2.621c-.446-.03-.9-.047-1.35-.047h0A19.931,19.931,0,0,0,21,42h0A19.924,19.924,0,0,0,38.633,12.787ZM15.209,5.8a16.869,16.869,0,0,0-1.434,2.561,26.338,26.338,0,0,0-1.626,4.854,26.342,26.342,0,0,0-4.854,1.626,16.862,16.862,0,0,0-2.562,1.435A17.353,17.353,0,0,1,15.209,5.8ZM8.4,17.267A22.405,22.405,0,0,1,11.6,16.112a41.305,41.305,0,0,0,0,11.915A22.38,22.38,0,0,1,8.4,26.871c-2.967-1.357-4.669-3.107-4.669-4.8S5.435,18.624,8.4,17.267ZM4.733,27.859a16.873,16.873,0,0,0,2.562,1.435,26.335,26.335,0,0,0,4.854,1.626,26.341,26.341,0,0,0,1.626,4.854,16.869,16.869,0,0,0,1.434,2.561A17.353,17.353,0,0,1,4.733,27.859ZM21,39.336h0c-1.695,0-3.445-1.7-4.8-4.669a22.4,22.4,0,0,1-1.156-3.193A40.679,40.679,0,0,0,21,31.905a40.665,40.665,0,0,0,5.957-.432A22.384,22.384,0,0,1,25.8,34.667C24.445,37.634,22.695,39.336,21,39.336Zm5.79-1a16.868,16.868,0,0,0,1.435-2.562,26.328,26.328,0,0,0,1.626-4.854,26.332,26.332,0,0,0,4.854-1.626,16.86,16.86,0,0,0,2.561-1.435A17.352,17.352,0,0,1,26.79,38.336Z" fill="#f7f7f7"/>
        <path id="Path_12" data-name="Path 12" d="M30.51,20.608a.4.4,0,0,0,.309-.146c1.228-1.5,7.353-9.144,7.353-12.8a7.662,7.662,0,0,0-15.324,0c0,3.658,6.125,11.3,7.353,12.8A.4.4,0,0,0,30.51,20.608ZM26.38,7.216a4.13,4.13,0,1,1,4.13,4.13A4.134,4.134,0,0,1,26.38,7.216Z" fill="#f7f7f7"/>
      </g>
    </g>
  </g>
</svg>
