<svg xmlns="http://www.w3.org/2000/svg" xmlns:xlink="http://www.w3.org/1999/xlink" width="86.042" height="82.4" viewBox="0 0 86.042 82.4">
  <defs>
    <clipPath id="clip-path">
      <rect id="Rectangle_9" data-name="Rectangle 9" width="42" height="42" transform="translate(1010 1220)" fill="#f7f7f7"/>
    </clipPath>
  </defs>
  <g id="Group_2" data-name="Group 2" transform="translate(-988 -1200)">
    <path id="Path_6" data-name="Path 6" d="M890.732,827.377c10.974,16.8,5.654,39.9-11.414,49.605l-.275.156c-9.2,5.16-19.56,7.7-29.932,8.874-11.71,1.331-25.247.187-32.586-9.476-4.869-6.412-5.8-15.115-6.041-23.309-.288-10,.276-20.41,4.782-29.222,7.469-14.608,24.815-21.616,40.5-19.6C866.457,805.783,880.978,812.445,890.732,827.377Z" transform="translate(177.58 395.934)" fill="#b3b0ad"/>
    <g id="Mask_Group_3" data-name="Mask Group 3" clip-path="url(#clip-path)">
      <path id="apps-svgrepo-com" d="M16.525,1.033H5.508A4.481,4.481,0,0,0,1.033,5.508V16.525A4.481,4.481,0,0,0,5.508,21H16.525A4.481,4.481,0,0,0,21,16.525V5.508a4.481,4.481,0,0,0-4.475-4.475Zm1.033,15.492a1.035,1.035,0,0,1-1.033,1.033H5.508a1.035,1.035,0,0,1-1.033-1.033V5.508A1.035,1.035,0,0,1,5.508,4.475H16.525a1.035,1.035,0,0,1,1.033,1.033h0Zm-1.033,6.541H5.508a4.481,4.481,0,0,0-4.475,4.475V38.557a4.481,4.481,0,0,0,4.475,4.475H16.525A4.481,4.481,0,0,0,21,38.557V27.541a4.481,4.481,0,0,0-4.475-4.475Zm1.033,15.492a1.033,1.033,0,0,1-1.033,1.033H5.508a1.033,1.033,0,0,1-1.033-1.033V27.541a1.033,1.033,0,0,1,1.033-1.033H16.525a1.033,1.033,0,0,1,1.033,1.033h0Zm21-37.525H27.541a4.481,4.481,0,0,0-4.475,4.475V16.525A4.481,4.481,0,0,0,27.541,21H38.557a4.481,4.481,0,0,0,4.475-4.475V5.508a4.481,4.481,0,0,0-4.475-4.475ZM39.59,16.525a1.033,1.033,0,0,1-1.033,1.033H27.541a1.033,1.033,0,0,1-1.033-1.033V5.508a1.033,1.033,0,0,1,1.033-1.033H38.557A1.033,1.033,0,0,1,39.59,5.508h0Zm-1.033,6.541H27.541a4.479,4.479,0,0,0-4.475,4.475V38.557a4.479,4.479,0,0,0,4.475,4.475H38.557a4.479,4.479,0,0,0,4.475-4.475V27.541a4.479,4.479,0,0,0-4.475-4.475ZM39.59,38.557a1.033,1.033,0,0,1-1.033,1.033H27.541a1.033,1.033,0,0,1-1.033-1.033h0V27.541a1.033,1.033,0,0,1,1.033-1.033H38.557a1.033,1.033,0,0,1,1.033,1.033h0Z" transform="translate(1008.967 1218.967)" fill="#f7f7f7"/>
    </g>
  </g>
</svg>
