<svg xmlns="http://www.w3.org/2000/svg" xmlns:xlink="http://www.w3.org/1999/xlink" width="86.042" height="82.4" viewBox="0 0 86.042 82.4">
  <defs>
    <clipPath id="clip-path">
      <rect id="Rectangle_15" data-name="Rectangle 15" width="42" height="42" transform="translate(1434 1568)" fill="#f7f7f7"/>
    </clipPath>
  </defs>
  <g id="Group_5" data-name="Group 5" transform="translate(-1412 -1548)">
    <path id="Path_9" data-name="Path 9" d="M890.732,827.377c10.974,16.8,5.654,39.9-11.414,49.605l-.275.156c-9.2,5.16-19.56,7.7-29.932,8.874-11.71,1.331-25.247.187-32.586-9.476-4.869-6.412-5.8-15.115-6.041-23.309-.288-10,.276-20.41,4.782-29.222,7.469-14.608,24.815-21.616,40.5-19.6C866.457,805.783,880.978,812.445,890.732,827.377Z" transform="translate(601.58 743.934)" fill="#b3b0ad"/>
    <g id="Mask_Group_6" data-name="Mask Group 6" clip-path="url(#clip-path)">
      <path id="dollar-symbol-svgrepo-com" d="M28.737,7.737a2.211,2.211,0,0,0-4.421,0V8.973a15.3,15.3,0,0,0-6.861,2.471,8.9,8.9,0,0,0-.7,14.624,14.2,14.2,0,0,0,7.565,2.578V39.617a10.659,10.659,0,0,1-4.349-1.646,4.581,4.581,0,0,1-2.283-3.707,2.211,2.211,0,0,0-4.421,0,8.969,8.969,0,0,0,4.191,7.345,15.3,15.3,0,0,0,6.861,2.471v1.236a2.211,2.211,0,0,0,4.421,0v-1.23a15.314,15.314,0,0,0,6.847-2.4,9.035,9.035,0,0,0,.7-14.782,14.252,14.252,0,0,0-7.551-2.5V13.436a10.658,10.658,0,0,1,4.349,1.646,4.582,4.582,0,0,1,2.283,3.708,2.211,2.211,0,1,0,4.421,0A8.969,8.969,0,0,0,35.6,11.444a15.3,15.3,0,0,0-6.861-2.471Zm-4.421,5.7a10.659,10.659,0,0,0-4.349,1.646,4.581,4.581,0,0,0-2.283,3.707,4.475,4.475,0,0,0,1.762,3.774,9.568,9.568,0,0,0,4.869,1.642Zm4.421,15.4V39.627a10.646,10.646,0,0,0,4.363-1.6,4.534,4.534,0,0,0,2.269-3.767,4.461,4.461,0,0,0-1.748-3.832A9.638,9.638,0,0,0,28.737,28.841Z" transform="translate(1428.474 1562.474)" fill="#f7f7f7" fill-rule="evenodd"/>
    </g>
  </g>
</svg>
