<svg xmlns="http://www.w3.org/2000/svg" xmlns:xlink="http://www.w3.org/1999/xlink" width="36" height="36" viewBox="0 0 36 36">
  <defs>
    <clipPath id="clip-path">
      <rect id="Rectangle_4" data-name="Rectangle 4" width="36" height="36" transform="translate(546 673)" fill="#e8c483"/>
    </clipPath>
  </defs>
  <g id="Mask_Group_1" data-name="Mask Group 1" transform="translate(-546 -673)" clip-path="url(#clip-path)">
    <g id="bed-svgrepo-com" transform="translate(543.907 670.907)">
      <path id="Path_1" data-name="Path 1" d="M31.814,33.488V30.977M8.372,33.488V30.977" fill="rgba(0,0,0,0)" stroke="#34415a" stroke-linecap="round" stroke-width="2.512"/>
      <path id="Path_2" data-name="Path 2" d="M3.349,25.116A8.352,8.352,0,0,1,3.6,22.16a3.349,3.349,0,0,1,1.812-1.812,8.354,8.354,0,0,1,2.956-.255H31.814a8.354,8.354,0,0,1,2.956.255,3.35,3.35,0,0,1,1.812,1.812,8.354,8.354,0,0,1,.255,2.956,8.354,8.354,0,0,1-.255,2.956,3.35,3.35,0,0,1-1.812,1.812,8.354,8.354,0,0,1-2.956.255H8.372a8.354,8.354,0,0,1-2.956-.255A3.349,3.349,0,0,1,3.6,28.072,8.352,8.352,0,0,1,3.349,25.116Z" fill="rgba(0,0,0,0)" stroke="#34415a" stroke-width="2.512"/>
      <path id="Path_3" data-name="Path 3" d="M35.163,20.093c0-6.315,0-9.472-1.962-11.434S28.082,6.7,21.767,6.7H18.419c-6.315,0-9.472,0-11.434,1.962S5.023,13.778,5.023,20.093" fill="rgba(0,0,0,0)" stroke="#34415a" stroke-width="2.512"/>
      <path id="Path_4" data-name="Path 4" d="M30.977,20.093V17.581c0-3.157,0-4.736-.981-5.717s-2.56-.981-5.717-.981H15.907c-3.157,0-4.736,0-5.717.981s-.981,2.559-.981,5.717v2.512" fill="rgba(0,0,0,0)" stroke="#34415a" stroke-width="2.512"/>
      <path id="Path_5" data-name="Path 5" d="M20.093,11.721v8.372" fill="rgba(0,0,0,0)" stroke="#34415a" stroke-width="2.512"/>
    </g>
  </g>
</svg>
