<svg xmlns="http://www.w3.org/2000/svg" xmlns:xlink="http://www.w3.org/1999/xlink" width="36" height="36" viewBox="0 0 36 36">
  <defs>
    <clipPath id="clip-path">
      <rect id="Rectangle_49" data-name="Rectangle 49" width="36" height="36" transform="translate(20 10)" fill="#34415a"/>
    </clipPath>
  </defs>
  <g id="Mask_Group_25" data-name="Mask Group 25" transform="translate(-20 -10)" clip-path="url(#clip-path)">
    <g id="user-svgrepo-com" transform="translate(17.907 7.907)">
      <path id="Ellipse_5" data-name="Ellipse 5" d="M6.7-1.256A7.953,7.953,0,1,1-1.256,6.7,7.962,7.962,0,0,1,6.7-1.256Zm0,13.4A5.442,5.442,0,1,0,1.256,6.7,5.448,5.448,0,0,0,6.7,12.14Z" transform="translate(13.395 3.349)" fill="#34415a"/>
      <path id="Path_330" data-name="Path 330" d="M20.093,38.093c-6.541,0-10.4-.768-12.514-2.489a5.4,5.4,0,0,1-1.9-3.085A14.307,14.307,0,0,1,5.442,29.3c0-2.486,1.621-4.767,4.564-6.423a20.932,20.932,0,0,1,10.088-2.368A20.932,20.932,0,0,1,30.181,22.88c2.943,1.655,4.564,3.936,4.564,6.423,0,.281,0,.572,0,.856a1.256,1.256,0,0,1-2.511-.038c0-.265,0-.534,0-.818,0-1.539-1.166-3.042-3.283-4.233a18.4,18.4,0,0,0-8.856-2.046,18.4,18.4,0,0,0-8.856,2.046C9.12,26.26,7.953,27.763,7.953,29.3c0,2.151.056,3.413,1.212,4.354,1.591,1.3,5.165,1.925,10.928,1.925a35.93,35.93,0,0,0,8.078-.7,1.256,1.256,0,0,1,.589,2.442A38.25,38.25,0,0,1,20.093,38.093Z" fill="#34415a"/>
    </g>
  </g>
</svg>
