<svg xmlns="http://www.w3.org/2000/svg" xmlns:xlink="http://www.w3.org/1999/xlink" width="36" height="36" viewBox="0 0 36 36">
  <defs>
    <clipPath id="clip-path">
      <rect id="Rectangle_3" data-name="Rectangle 3" width="36" height="36" transform="translate(163 673)" fill="#e8c483"/>
    </clipPath>
  </defs>
  <g id="Mask_Group_2" data-name="Mask Group 2" transform="translate(-163 -673)" clip-path="url(#clip-path)">
    <path id="pin-svgrepo-com" d="M26.772,8.289l.888-.888h0Zm5.161,5.166-.888.888Zm-17.3,19.077-.888.888Zm-6.893-6.9.888-.887Zm21.675-.525-.442-1.176ZM26.2,26.312l.442,1.176h0ZM13.951,14.034,12.772,13.6Zm1.163-3.174,1.179.432h0ZM9.787,17.872l.334,1.211Zm2.439-.9-.734-1.019h0Zm.626-.577.956.814h0ZM23.862,27.427l.822.949h0ZM22.4,30.476l-1.211-.333h0Zm.9-2.436-1.02-.732h0ZM4.552,21.357,3.3,21.365h0Zm.355-1.345-1.088-.627h0ZM18.929,35.737l0-1.256h0Zm1.32-.349L19.626,34.3h0ZM19.586,3.409l.27,1.226ZM2.46,35.949a1.256,1.256,0,0,0,1.777,1.775Zm9.568-6.024a1.256,1.256,0,1,0-1.777-1.775ZM25.884,9.176l5.161,5.166,1.777-1.775L27.661,7.4ZM15.52,31.644l-6.893-6.9L6.85,26.519l6.893,6.9Zm13.452-7.713-3.21,1.206.883,2.351,3.21-1.206ZM15.13,14.466l1.163-3.174-2.358-.864L12.772,13.6Zm-5.01,4.616a8.739,8.739,0,0,0,2.839-1.093l-1.467-2.038a6.873,6.873,0,0,1-2.039.71Zm2.652-5.48a6.89,6.89,0,0,1-.876,1.976l1.912,1.629a8.751,8.751,0,0,0,1.322-2.741Zm.187,4.387a4.8,4.8,0,0,0,.849-.782L11.9,15.578a2.286,2.286,0,0,1-.4.373Zm12.8,7.147a8.734,8.734,0,0,0-2.723,1.341l1.644,1.9a6.863,6.863,0,0,1,1.962-.889Zm-2.147,5.672a6.882,6.882,0,0,1,.708-2.037l-2.041-1.464a8.751,8.751,0,0,0-1.089,2.834Zm-.575-4.331a4.8,4.8,0,0,0-.758.83l2.041,1.464a2.282,2.282,0,0,1,.361-.4ZM8.627,24.744c-1.082-1.083-1.816-1.82-2.292-2.418s-.527-.86-.528-.977L3.3,21.365A4.126,4.126,0,0,0,4.37,23.89a35.587,35.587,0,0,0,2.48,2.629Zm.826-8.083A35.52,35.52,0,0,0,6,17.721a4.121,4.121,0,0,0-2.181,1.665l2.176,1.253c.058-.1.229-.3.94-.588s1.711-.563,3.186-.969ZM5.808,21.349a1.405,1.405,0,0,1,.187-.71L3.818,19.386A3.917,3.917,0,0,0,3.3,21.365Zm7.935,12.07a35.581,35.581,0,0,0,2.643,2.5,4.118,4.118,0,0,0,2.541,1.076l0-2.512c-.116,0-.377-.048-.98-.529s-1.342-1.218-2.431-2.308Zm7.45-3.277c-.409,1.486-.689,2.5-.975,3.209s-.491.887-.592.945l1.245,2.181a4.121,4.121,0,0,0,1.678-2.191,35.623,35.623,0,0,0,1.066-3.478Zm-2.266,6.85a3.91,3.91,0,0,0,1.944-.514L19.626,34.3a1.4,1.4,0,0,1-.7.184Zm12.117-22.65a43.079,43.079,0,0,1,3.769,4.04c.743,1,.828,1.536.737,1.955l2.455.531a4.848,4.848,0,0,0-1.174-3.981,44.842,44.842,0,0,0-4.01-4.32Zm-1.189,11.94a44.8,44.8,0,0,0,5.436-2.274,4.844,4.844,0,0,0,2.714-3.139l-2.455-.531c-.091.419-.388.869-1.478,1.474a43.041,43.041,0,0,1-5.1,2.119ZM27.661,7.4a45.143,45.143,0,0,0-4.346-4.042,4.842,4.842,0,0,0-4-1.177l.541,2.453c.418-.092.953-.009,1.962.741a43.424,43.424,0,0,1,4.066,3.8ZM16.293,11.293a43.465,43.465,0,0,1,2.094-5.159c.6-1.1,1.051-1.406,1.469-1.5l-.541-2.453a4.846,4.846,0,0,0-3.135,2.75,45.2,45.2,0,0,0-2.246,5.5ZM4.237,37.724l7.791-7.8L10.252,28.15l-7.791,7.8Z" transform="translate(160.907 670.908)" fill="#1c274c"/>
  </g>
</svg>
