<svg xmlns="http://www.w3.org/2000/svg" xmlns:xlink="http://www.w3.org/1999/xlink" width="29" height="28" viewBox="0 0 29 28">
  <defs>
    <clipPath id="clip-path">
      <rect id="Rectangle_55" data-name="Rectangle 55" width="29" height="28" transform="translate(0.412 0.493)" fill="#fff"/>
    </clipPath>
  </defs>
  <g id="Mask_Group_28" data-name="Mask Group 28" transform="translate(-0.412 -0.493)" clip-path="url(#clip-path)">
    <g id="grid-4-svgrepo-com" transform="translate(0 0)">
      <path id="Path_332" data-name="Path 332" d="M7.716,6.541H18.684a1.175,1.175,0,0,1,1.175,1.175V18.684a1.175,1.175,0,0,1-1.175,1.175H7.716a1.175,1.175,0,0,1-1.175-1.175V7.716A1.175,1.175,0,0,1,7.716,6.541Zm9.793,2.35H8.891v8.618h8.618Z" transform="translate(-6.541 -6.541)" fill="#34415a"/>
      <path id="Path_333" data-name="Path 333" d="M7.716,30.324H18.684A1.175,1.175,0,0,1,19.859,31.5V42.467a1.175,1.175,0,0,1-1.175,1.175H7.716a1.175,1.175,0,0,1-1.175-1.175V31.5A1.175,1.175,0,0,1,7.716,30.324Zm9.793,2.35H8.891v8.618h8.618Z" transform="translate(-6.541 -14.656)" fill="#34415a"/>
      <path id="Path_334" data-name="Path 334" d="M31.5,6.541H42.467a1.175,1.175,0,0,1,1.175,1.175V18.684a1.175,1.175,0,0,1-1.175,1.175H31.5a1.175,1.175,0,0,1-1.175-1.175V7.716A1.175,1.175,0,0,1,31.5,6.541Zm9.793,2.35H32.675v8.618h8.618Z" transform="translate(-14.656 -6.541)" fill="#34415a"/>
      <path id="Path_335" data-name="Path 335" d="M31.5,30.324H42.467A1.175,1.175,0,0,1,43.643,31.5V42.467a1.175,1.175,0,0,1-1.175,1.175H31.5a1.175,1.175,0,0,1-1.175-1.175V31.5A1.175,1.175,0,0,1,31.5,30.324Zm9.793,2.35H32.675v8.618h8.618Z" transform="translate(-14.656 -14.656)" fill="#34415a"/>
    </g>
  </g>
</svg>
