<svg xmlns="http://www.w3.org/2000/svg" xmlns:xlink="http://www.w3.org/1999/xlink" width="92" height="92" viewBox="0 0 92 92">
  <defs>
    <clipPath id="clip-path">
      <rect id="Rectangle_26" data-name="Rectangle 26" width="92" height="92" transform="translate(1366 1998)" fill="#f7f7f7"/>
    </clipPath>
  </defs>
  <g id="Mask_Group_11" data-name="Mask Group 11" transform="translate(-1366 -1998)" clip-path="url(#clip-path)">
    <g id="_x31_2" transform="translate(1362.935 1991.869)">
      <path id="Path_320" data-name="Path 320" d="M92.361,46l2.381-4.762a3.066,3.066,0,0,0-2-4.347L82.8,34.4v-.672a3.067,3.067,0,0,0-3.067-3.067H71.8L67.466,26.33V21.466a3.068,3.068,0,0,0-3.811-2.975L51.388,21.558a3.071,3.071,0,0,0-1.807,1.274l-3.2,4.8-.7-1.408a3.07,3.07,0,0,0-2.252-1.656,3.1,3.1,0,0,0-2.659.859l-1.637,1.637L25.672,21.685a3.087,3.087,0,0,0-2.11-.061l-9.2,3.067a3.067,3.067,0,0,0-1.939,3.88l2.225,6.677-3.754,1.876a3.066,3.066,0,0,0-1.7,2.743V44.1L4.762,46.323A3.067,3.067,0,0,0,3.39,50.437l3.067,6.133a3.066,3.066,0,0,0,2.743,1.7H21.466a3.067,3.067,0,0,0,2.168-.9l2.555-2.555L32.9,52.574l8.758,8.758L37.7,65.3a3.055,3.055,0,0,0-.575.8l-3.067,6.133a3.068,3.068,0,0,0,.575,3.54L37.7,78.834a3.068,3.068,0,0,0,2.168.9h3.067a3.067,3.067,0,0,0,2.168-.9l3.965-3.965.9.9a3.066,3.066,0,0,0,4.911-.8l.323-.649v2.344a3.066,3.066,0,0,0,1.7,2.743l4.438,2.219V82.8a3.067,3.067,0,0,0,4.438,2.743l12.266-6.133a3.07,3.07,0,0,0,1.372-1.372L82.475,71.9a3.067,3.067,0,0,0-4.115-4.115l-3.39,1.7-.425-.851,12.9-7.738a3.063,3.063,0,0,0,1.165-1.258L90.828,55.2H92a3.067,3.067,0,0,0,2.743-4.438Zm-6.172-1.372a3.07,3.07,0,0,0,0,2.743l1.09,2.179a3.069,3.069,0,0,0-1.09,1.211L83.522,56.1l-14.568,8.74a3.068,3.068,0,0,0-1.165,4l3.067,6.133a3.055,3.055,0,0,0,.633.855l-4.507,2.254a3.069,3.069,0,0,0-1.211-1.09L61.332,74.77v-.448l2.743-5.485A3.067,3.067,0,0,0,61.332,64.4H55.2a3.066,3.066,0,0,0-2.743,1.7l-1.163,2.328-.058-.058a3.065,3.065,0,0,0-4.336,0L41.663,73.6h-.527l-.6-.6,1.855-3.712L48.167,63.5a3.065,3.065,0,0,0,0-4.336L35.9,46.9a3.055,3.055,0,0,0-3.139-.741l-9.2,3.067a3.078,3.078,0,0,0-1.2.741L20.2,52.132H11.1l-.848-1.7,3.39-1.7A3.066,3.066,0,0,0,15.333,46V41.762l4.438-2.219a3.069,3.069,0,0,0,1.538-3.713l-2.1-6.29L24.437,27.8l14.289,5.717a3.065,3.065,0,0,0,3.308-.68l.058-.058L43.256,35.1a3.067,3.067,0,0,0,5.295.329l5.476-8.213,7.306-1.827V27.6a3.067,3.067,0,0,0,.9,2.168L68.364,35.9a3.068,3.068,0,0,0,2.168.9h6.133a3.067,3.067,0,0,0,2.322,2.975l8.557,2.14Z" fill="#f7f7f7"/>
    </g>
  </g>
</svg>
