<svg xmlns="http://www.w3.org/2000/svg" xmlns:xlink="http://www.w3.org/1999/xlink" width="60" height="60" viewBox="0 0 60 60">
  <defs>
    <clipPath id="clip-path">
      <circle id="Ellipse_4" data-name="Ellipse 4" cx="30" cy="30" r="30" transform="translate(0 0)" fill="#668e98"/>
    </clipPath>
    <clipPath id="clip-path-2">
      <rect id="Rectangle_35" data-name="Rectangle 35" width="60" height="60" transform="translate(0 0)" fill="#668e98"/>
    </clipPath>
  </defs>
  <g id="Mask_Group_17" data-name="Mask Group 17" transform="translate(0 0)" clip-path="url(#clip-path)">
    <g id="options-svgrepo-com" clip-path="url(#clip-path-2)">
      <path id="Path_328" data-name="Path 328" d="M32.5,23.125H10a3.125,3.125,0,0,1,0-6.25H32.5a3.125,3.125,0,0,1,0,6.25Z" fill="#668e98"/>
      <path id="Path_329" data-name="Path 329" d="M50,23.125H42.5a3.125,3.125,0,0,1,0-6.25H50a3.125,3.125,0,0,1,0,6.25Z" fill="#668e98"/>
      <path id="Path_330" data-name="Path 330" d="M50,43.125H27.5a3.125,3.125,0,0,1,0-6.25H50a3.125,3.125,0,0,1,0,6.25Z" fill="#668e98"/>
      <path id="Path_331" data-name="Path 331" d="M17.5,43.125H10a3.125,3.125,0,0,1,0-6.25h7.5a3.125,3.125,0,0,1,0,6.25Z" fill="#668e98"/>
      <path id="Ellipse_5" data-name="Ellipse 5" d="M5-3.125A8.125,8.125,0,1,1-3.125,5,8.134,8.134,0,0,1,5-3.125Zm0,10A1.875,1.875,0,1,0,3.125,5,1.877,1.877,0,0,0,5,6.875Z" transform="translate(17.5 35)" fill="#668e98"/>
      <path id="Ellipse_6" data-name="Ellipse 6" d="M5-3.125A8.125,8.125,0,1,1-3.125,5,8.134,8.134,0,0,1,5-3.125Zm0,10A1.875,1.875,0,1,0,3.125,5,1.877,1.877,0,0,0,5,6.875Z" transform="translate(32.5 15)" fill="#668e98"/>
    </g>
  </g>
</svg>
