<svg xmlns="http://www.w3.org/2000/svg" xmlns:xlink="http://www.w3.org/1999/xlink" width="28" height="28" viewBox="0 0 28 28">
  <defs>
    <clipPath id="clip-path">
      <rect id="Rectangle_61" data-name="Rectangle 61" width="28" height="28" transform="translate(604 2970)" fill="#668e98"/>
    </clipPath>
  </defs>
  <g id="Mask_Group_30" data-name="Mask Group 30" transform="translate(-604 -2970)" clip-path="url(#clip-path)">
    <g id="parking-svgrepo-com" transform="translate(602.728 2968.727)">
      <path id="Path_331" data-name="Path 331" d="M14,7.636a3.818,3.818,0,0,0-3.818,3.818V21.636a1.273,1.273,0,0,0,2.545,0V17.818h2.551a5.082,5.082,0,0,0,.8-.077,5.966,5.966,0,0,0,1.672-.535,4.623,4.623,0,0,0,1.8-1.566,5.147,5.147,0,0,0,.81-2.913,5.147,5.147,0,0,0-.81-2.913,4.623,4.623,0,0,0-1.8-1.566,5.964,5.964,0,0,0-1.672-.535,4.941,4.941,0,0,0-.806-.077Zm-1.273,7.636V11.455A1.273,1.273,0,0,1,14,10.182h1.273a3.3,3.3,0,0,1,1.339.343,2.081,2.081,0,0,1,.823.7,2.623,2.623,0,0,1,.383,1.5,2.623,2.623,0,0,1-.383,1.5,2.081,2.081,0,0,1-.823.7,3.3,3.3,0,0,1-1.34.343Z" fill="#668e98" fill-rule="evenodd"/>
      <path id="Path_332" data-name="Path 332" d="M25.455,1.273a3.818,3.818,0,0,1,3.818,3.818V25.455a3.818,3.818,0,0,1-3.818,3.818H5.091a3.818,3.818,0,0,1-3.818-3.818V5.091A3.818,3.818,0,0,1,5.091,1.273Zm0,2.545a1.273,1.273,0,0,1,1.273,1.273V25.455a1.273,1.273,0,0,1-1.273,1.273H5.091a1.273,1.273,0,0,1-1.273-1.273V5.091A1.273,1.273,0,0,1,5.091,3.818Z" fill="#668e98" fill-rule="evenodd"/>
    </g>
  </g>
</svg>
