<svg xmlns="http://www.w3.org/2000/svg" xmlns:xlink="http://www.w3.org/1999/xlink" width="46" height="46" viewBox="0 0 46 46">
  <defs>
    <clipPath id="clip-path">
      <rect id="Rectangle_3" data-name="Rectangle 3" width="46" height="46" transform="translate(163 673)" fill="#e8c483"/>
    </clipPath>
  </defs>
  <g id="Mask_Group_2" data-name="Mask Group 2" transform="translate(-163 -673)" clip-path="url(#clip-path)">
    <path id="pin-svgrepo-com" d="M33.942,10.089l1.147-1.145h0Zm6.66,6.667L39.455,17.9ZM18.274,41.374,17.127,42.52Zm-8.9-8.9,1.147-1.145Zm27.972-.678-.57-1.517Zm-4.142,1.556.57,1.517h0ZM17.4,17.5l-1.522-.558Zm1.5-4.1,1.522.558h0Zm-6.875,9.048.431,1.562Zm3.147-1.163-.947-1.315h0Zm.808-.745L17.211,21.6h0Zm14.208,14.24,1.061,1.225h0ZM28.3,38.721l-1.563-.43h0Zm1.159-3.143-1.317-.945h0Zm-24.2-8.625-1.621.01h0Zm.458-1.735-1.4-.809h0ZM23.82,45.51l0-1.621h0Zm1.7-.45-.8-1.408h0ZM24.667,3.792l.349,1.583ZM2.567,45.784A1.621,1.621,0,0,0,4.86,48.075ZM14.915,38.01a1.621,1.621,0,1,0-2.293-2.291ZM32.8,11.234l6.66,6.667,2.293-2.291-6.66-6.667ZM19.42,40.229l-8.9-8.9L8.232,33.615l8.9,8.9Zm17.36-9.954-4.143,1.556,1.14,3.034,4.142-1.556ZM18.918,18.061l1.5-4.1L17.375,12.85l-1.5,4.1Zm-6.465,5.957a11.278,11.278,0,0,0,3.664-1.41l-1.894-2.63a8.869,8.869,0,0,1-2.631.916Zm3.422-7.072a8.891,8.891,0,0,1-1.13,2.55l2.467,2.1a11.293,11.293,0,0,0,1.707-3.537Zm.242,5.661a6.191,6.191,0,0,0,1.1-1.009l-2.467-2.1a2.95,2.95,0,0,1-.522.481Zm16.522,9.224a11.271,11.271,0,0,0-3.513,1.731l2.122,2.45a8.857,8.857,0,0,1,2.532-1.147Zm-2.771,7.32a8.881,8.881,0,0,1,.913-2.628l-2.634-1.889a11.293,11.293,0,0,0-1.4,3.658Zm-.743-5.589a6.193,6.193,0,0,0-.978,1.072l2.634,1.889a2.945,2.945,0,0,1,.466-.511Zm-18.6-2.237c-1.4-1.4-2.343-2.349-2.957-3.121s-.68-1.11-.681-1.26l-3.241.021a5.324,5.324,0,0,0,1.386,3.258,45.925,45.925,0,0,0,3.2,3.393Zm1.066-10.432a45.839,45.839,0,0,0-4.457,1.368A5.319,5.319,0,0,0,4.32,24.409l2.809,1.618c.075-.13.3-.39,1.213-.758s2.207-.726,4.111-1.251Zm-4.7,6.05a1.813,1.813,0,0,1,.242-.916L4.32,24.409a5.054,5.054,0,0,0-.674,2.554ZM17.127,42.52a45.918,45.918,0,0,0,3.411,3.223,5.314,5.314,0,0,0,3.279,1.388l0-3.241c-.15,0-.486-.062-1.265-.682s-1.732-1.572-3.138-2.978Zm9.615-4.228c-.527,1.918-.889,3.22-1.258,4.141s-.633,1.145-.764,1.22l1.607,2.815a5.318,5.318,0,0,0,2.165-2.828,45.972,45.972,0,0,0,1.376-4.489Zm-2.924,8.84a5.046,5.046,0,0,0,2.508-.663L24.72,43.652a1.8,1.8,0,0,1-.9.237ZM39.455,17.9a55.593,55.593,0,0,1,4.863,5.214c.959,1.293,1.069,1.982.952,2.523l3.168.685c.41-1.9-.346-3.559-1.515-5.138a57.867,57.867,0,0,0-5.174-5.575ZM37.921,33.309a57.81,57.81,0,0,0,7.015-2.934c1.717-.953,3.093-2.154,3.5-4.051l-3.168-.685c-.117.541-.5,1.122-1.908,1.9a55.544,55.544,0,0,1-6.582,2.734ZM35.088,8.943A58.258,58.258,0,0,0,29.48,3.728c-1.586-1.177-3.257-1.939-5.162-1.518l.7,3.165c.54-.119,1.229-.011,2.532.956a56.039,56.039,0,0,1,5.247,4.9Zm-14.67,5.022a56.091,56.091,0,0,1,2.7-6.658c.776-1.426,1.357-1.814,1.9-1.933l-.7-3.165c-1.905.42-3.1,1.814-4.045,3.549a58.324,58.324,0,0,0-2.9,7.092ZM4.86,48.075,14.915,38.01,12.622,35.72,2.567,45.784Z" transform="translate(160.907 670.908)" fill="#e8c483"/>
  </g>
</svg>
