<svg xmlns="http://www.w3.org/2000/svg" xmlns:xlink="http://www.w3.org/1999/xlink" width="36" height="36" viewBox="0 0 36 36">
  <defs>
    <clipPath id="clip-path">
      <rect id="Rectangle_48" data-name="Rectangle 48" width="36" height="36" transform="translate(20 10)" fill="#34415a"/>
    </clipPath>
  </defs>
  <g id="Mask_Group_24" data-name="Mask Group 24" transform="translate(-20 -10)" clip-path="url(#clip-path)">
    <g id="smartphone-svgrepo-com" transform="translate(17.907 7.907)">
      <path id="Path_330" data-name="Path 330" d="M20.093,38.093a61.321,61.321,0,0,1-7.517-.256,7.834,7.834,0,0,1-4.805-2.073A7.833,7.833,0,0,1,5.7,30.958a61.323,61.323,0,0,1-.256-7.516v-6.7A61.323,61.323,0,0,1,5.7,9.228,7.834,7.834,0,0,1,7.771,4.423a7.834,7.834,0,0,1,4.805-2.073,61.323,61.323,0,0,1,7.517-.256,61.323,61.323,0,0,1,7.517.256,7.833,7.833,0,0,1,4.805,2.073,7.834,7.834,0,0,1,2.073,4.805,61.324,61.324,0,0,1,.256,7.517,1.256,1.256,0,1,1-2.512,0c0-5.96,0-8.952-1.594-10.546S26.053,4.6,20.093,4.6,11.141,4.6,9.547,6.2,7.953,10.784,7.953,16.744v6.7c0,5.96,0,8.952,1.594,10.546s4.586,1.594,10.546,1.594,8.952,0,10.546-1.594,1.594-4.585,1.594-10.546a1.256,1.256,0,1,1,2.512,0,61.323,61.323,0,0,1-.256,7.516,7.833,7.833,0,0,1-2.073,4.805,7.833,7.833,0,0,1-4.805,2.073A61.321,61.321,0,0,1,20.093,38.093Z" fill="#34415a"/>
      <path id="Path_331" data-name="Path 331" d="M25.116,33.07H15.07a1.256,1.256,0,1,1,0-2.512H25.116a1.256,1.256,0,1,1,0,2.512Z" fill="#34415a"/>
    </g>
  </g>
</svg>
