<svg xmlns="http://www.w3.org/2000/svg" xmlns:xlink="http://www.w3.org/1999/xlink" width="28" height="28" viewBox="0 0 28 28">
  <defs>
    <clipPath id="clip-path">
      <rect id="Rectangle_60" data-name="Rectangle 60" width="28" height="28" transform="translate(433 2970)" fill="#668e98"/>
    </clipPath>
  </defs>
  <g id="Mask_Group_29" data-name="Mask Group 29" transform="translate(-433 -2970)" clip-path="url(#clip-path)">
    <g id="picket-garden-fence-svgrepo-com" transform="translate(433 2970)">
      <path id="Path_330" data-name="Path 330" d="M27.236,21.6H22.973V8.618h4.264a.764.764,0,1,0,0-1.527h-4.3A11.189,11.189,0,0,0,21.482,2.67L21.3,2.378a2.438,2.438,0,0,0-2.014-1.241,2.44,2.44,0,0,0-2.014,1.241l-.185.291A11.181,11.181,0,0,0,15.63,7.091H12.37A11.18,11.18,0,0,0,10.919,2.67l-.186-.292A2.438,2.438,0,0,0,8.719,1.137,2.439,2.439,0,0,0,6.7,2.378l-.185.291A11.172,11.172,0,0,0,5.067,7.09H.764a.764.764,0,0,0,0,1.527H5.027V21.6H.764a.764.764,0,0,0,0,1.527H5.027v.426a3.313,3.313,0,0,0,3.309,3.309H9.1a3.313,3.313,0,0,0,3.309-3.309v-.426h3.182v.427A3.313,3.313,0,0,0,18.9,26.863h.764a3.313,3.313,0,0,0,3.309-3.309v-.427h4.264a.763.763,0,1,0,0-1.527ZM10.882,23.554A1.784,1.784,0,0,1,9.1,25.336H8.336a1.784,1.784,0,0,1-1.782-1.782V7.772a9.512,9.512,0,0,1,1.251-4.28L7.991,3.2a.974.974,0,0,1,.727-.536.974.974,0,0,1,.727.536l.186.292a9.516,9.516,0,0,1,1.25,4.279V23.554ZM12.409,21.6V8.618h3.182V21.6Zm9.036,1.954a1.784,1.784,0,0,1-1.782,1.782H18.9a1.784,1.784,0,0,1-1.782-1.782V7.772a9.512,9.512,0,0,1,1.251-4.28l.185-.291a.975.975,0,0,1,.728-.536.973.973,0,0,1,.727.536l.186.292a9.516,9.516,0,0,1,1.25,4.279V23.554ZM9.736,22.364a1.018,1.018,0,1,1-1.018-1.018A1.018,1.018,0,0,1,9.736,22.364Zm10.564,0a1.018,1.018,0,1,1-1.018-1.018A1.018,1.018,0,0,1,20.3,22.364ZM9.736,7.855A1.018,1.018,0,1,1,8.718,6.837,1.018,1.018,0,0,1,9.736,7.855Zm10.564,0a1.018,1.018,0,1,1-1.018-1.018A1.018,1.018,0,0,1,20.3,7.855Z" fill="#668e98"/>
    </g>
  </g>
</svg>
